<svg id="visual" viewBox="0 0 960 540" width="960" height="540" xmlns="http://www.w3.org/2000/svg" xmlns:xlink="http://www.w3.org/1999/xlink" version="1.1"><path d="M0 335L16 333.5C32 332 64 329 96 313.2C128 297.3 160 268.7 192 253.7C224 238.7 256 237.3 288 251.8C320 266.3 352 296.7 384 301.7C416 306.7 448 286.3 480 272.2C512 258 544 250 576 261.3C608 272.7 640 303.3 672 306C704 308.7 736 283.3 768 273.2C800 263 832 268 864 263.2C896 258.3 928 243.7 944 236.3L960 229L960 541L944 541C928 541 896 541 864 541C832 541 800 541 768 541C736 541 704 541 672 541C640 541 608 541 576 541C544 541 512 541 480 541C448 541 416 541 384 541C352 541 320 541 288 541C256 541 224 541 192 541C160 541 128 541 96 541C64 541 32 541 16 541L0 541Z" fill="#d6d2ed" stroke-linecap="round" stroke-linejoin="miter"></path></svg>